<?xml version="1.0" encoding="utf-8"?>
<svg version="1.1" id="deleteAll_svg" 
  xmlns="http://www.w3.org/2000/svg" 
  xmlns:xlink="http://www.w3.org/1999/xlink" 
  x="0px" y="0px" 
  viewBox="0 0 40 40" 
  style="enable-background:new 0 0 40 40;" 
  xml:space="preserve">
  <style type="text/css">
    .st0{
      fill:none;
      stroke:#333333;
      stroke-linecap:round;
      stroke-miterlimit:10;
    }
    .st1{
      fill:#888888;
    }
  </style>
  <path class="st1"
  	d="M6.88,8.04C8,5,13.68,4,20.49,4s10.69,1.01,12.64,3.04c1.95,2.03,0,4.04,0,4.04l-0.95,1.01c0,0,0,20.7,0,22.3
  	c0,1.6-2.06,3.6-11.74,3.6S8.8,35.79,8.8,34.4c0-1.4,0-22.3,0-22.3l-0.95-1.01C7.86,11.08,6.11,10.15,6.88,8.04z"/>
  <path class="st0" 
    d="M11,11.44c2.59,1.13,6.04,1.13,9.49,1.13s7.45,0,9.33-1.13"/>
  <path class="st1" 
    d="M26,6.5c0,0-0.72,0-1.49,0S23.7,2,22.18,2c-1.58,0-0.77,0-2.32,0s-1.55,4.5-2.32,4.5s-1.35,0-1.35,0"/>
<!--   <path class="st0" 
    d="M11,14c0,0,0,18.98,0,18.98"/> -->
<!--   <path class="st0" 
    d="M15,15c0,0,0,18.98,0,18.98"/> -->
  <path class="st0" 
    d="M20,17c0,0,0,17,0,18"/>
  <path class="st0" 
    d="M25,15c0,0,0,18,0,20"/>
  <path class="st0" 
    d="M29,15c0,0,0,18.98,0,18.98"/>
</svg>
